<svg xmlns="http://www.w3.org/2000/svg" viewBox="0 0 293.98 73.78"><defs><style>.cls-1{fill:#4cc2c2;}.cls-2{fill:#12bbb5;}.cls-3{fill:#77cdcf;}</style></defs><title>logotipo_alameda</title><g id="Capa_1" data-name="Capa 1"><path class="cls-1" d="M125.1,52.94H114.35c-1.16,2.74-2.66,6.34-3.6,8.82h-4.67l12-30.36h3.17l12,30.36h-4.62ZM116,48.88h7.45L119.75,38.3Z" transform="translate(-24.32 -31.41)"/><path class="cls-1" d="M144.19,57.44h14.09v4.32H139.87V31.84h4.32Z" transform="translate(-24.32 -31.41)"/><path class="cls-1" d="M183.23,52.94H172.49c-1.16,2.74-2.66,6.34-3.6,8.82h-4.67l12-30.36h3.17l12,30.36h-4.62Zm-9.12-4.07h7.45L177.88,38.3Z" transform="translate(-24.32 -31.41)"/><path class="cls-1" d="M202.58,61.76h-4.32v-30h3.51l9.89,14.56,9.89-14.56H225v30H220.7V40.66L212.86,52.3h-2.44l-7.84-11.65Z" transform="translate(-24.32 -31.41)"/><path class="cls-1" d="M238.8,57.44h13.92v4.32H234.43V31.84h18.24v4.32H238.8V44.6h13.57V49H238.8Z" transform="translate(-24.32 -31.41)"/><path class="cls-1" d="M271.64,31.84c9.8,0,14.73,7.49,14.73,15s-4.92,14.94-14.73,14.94H260.89V31.84Zm0,25.6c6.94,0,10.45-5.31,10.45-10.62s-3.51-10.66-10.45-10.66h-6.42V57.44Z" transform="translate(-24.32 -31.41)"/><path class="cls-1" d="M310.08,52.94H299.34c-1.16,2.74-2.66,6.34-3.6,8.82h-4.67l12-30.36h3.17l12,30.36h-4.62ZM301,48.88h7.45L304.73,38.3Z" transform="translate(-24.32 -31.41)"/><path class="cls-1" d="M110.5,79.23a14.45,14.45,0,0,1,10.36-4.45,14,14,0,0,1,14,11h-4.28a9.75,9.75,0,0,0-9.68-6.77,10.2,10.2,0,0,0-7.36,3.21,11.07,11.07,0,0,0,0,15.33,10.32,10.32,0,0,0,17.3-3.94H135c-1.71,6.81-7.19,11.43-14.17,11.43a14.29,14.29,0,0,1-10.36-4.45,15.52,15.52,0,0,1,0-21.41Z" transform="translate(-24.32 -31.41)"/><path class="cls-1" d="M149.16,100.55h13.92v4.32H144.79V75H163v4.32H149.16v8.44h13.57v4.37H149.16Z" transform="translate(-24.32 -31.41)"/><path class="cls-1" d="M172.79,104.88v-30l3.34,0L190.73,96V74.91H195v30h-3.42L177.11,83.94v20.94Z" transform="translate(-24.32 -31.41)"/><path class="cls-1" d="M213.29,105V79.27h-9.08V74.91h22.44v4.37h-9V105Z" transform="translate(-24.32 -31.41)"/><path class="cls-1" d="M242.31,89.68h5.05a5.21,5.21,0,1,0,0-10.4h-6.64v25.6h-4.28v-30h10.92a9.28,9.28,0,0,1,9.76,9.55,9,9,0,0,1-7.75,9.16l9.46,11.26h-5.61L242.31,91.73Z" transform="translate(-24.32 -31.41)"/><path class="cls-1" d="M283.24,96.06H272.5c-1.16,2.74-2.66,6.34-3.6,8.82h-4.67l12-30.36h3.17l12,30.36h-4.62ZM274.12,92h7.45l-3.68-10.58Z" transform="translate(-24.32 -31.41)"/><path class="cls-1" d="M303.92,100.55H318v4.32H299.59V75h4.32Z" transform="translate(-24.32 -31.41)"/></g><g id="Capa_3" data-name="Capa 3"><polygon class="cls-1" points="73.18 73.78 37.38 56.46 37.38 56.46 73.18 39.14 73.18 73.78"/><polygon class="cls-2" points="37.38 37.59 73.18 37.59 73.18 37.59 37.38 54.91 37.38 37.59"/><polygon class="cls-3" points="37.38 73.78 73.18 73.78 73.18 73.78 37.38 56.46 37.38 73.78"/><polygon class="cls-1" points="0 73.78 35.81 56.46 35.81 56.46 0 39.14 0 73.78"/><polygon class="cls-2" points="35.81 37.59 0 37.59 0 37.59 35.81 54.91 35.81 37.59"/><polygon class="cls-3" points="35.81 73.78 0 73.78 0 73.78 35.81 56.46 35.81 73.78"/><polygon class="cls-1" points="0 0.34 35.81 17.66 35.81 17.66 0 34.99 0 0.34"/><polygon class="cls-2" points="35.81 36.53 0 36.53 0 36.53 35.81 19.21 35.81 36.53"/><polygon class="cls-3" points="35.81 0.34 0 0.34 0 0.34 35.81 17.66 35.81 0.34"/><polygon class="cls-1" points="73.18 0.34 37.38 17.66 37.38 17.66 73.18 34.99 73.18 0.34"/><polygon class="cls-2" points="37.38 36.53 73.18 36.53 73.18 36.53 37.38 19.21 37.38 36.53"/><polygon class="cls-3" points="37.38 0.34 73.18 0.34 73.18 0.34 37.38 17.66 37.38 0.34"/></g></svg>